<?xml version="1.0" encoding="utf-8"?>
<!-- Generator: Adobe Illustrator 27.5.0, SVG Export Plug-In . SVG Version: 6.00 Build 0)  -->
<svg version="1.1" xmlns="http://www.w3.org/2000/svg" xmlns:xlink="http://www.w3.org/1999/xlink" x="0px" y="0px"
	 viewBox="0 0 1270 1270" style="enable-background:new 0 0 1270 1270;" xml:space="preserve">
<g id="background">
	<g>
		<rect y="1" style="fill:#FFFFFF;" width="1270" height="1270"/>
	</g>
</g>
<g id="shadow">
	<g style="opacity:0.11;">
		<path style="fill:#606060;" d="M1119.824,1042H257.736c-27.268,0-49.579,13.509-49.579,30.02l0,0
			c0,11.433,10.702,21.422,26.335,26.488h-75.914c-27.268,0-49.579,13.509-49.579,30.02l0,0c0,16.511,22.31,30.02,49.579,30.02
			h26.452c-7.388,5.246-11.87,12.032-11.87,19.425v12.008c0,16.511,22.31,30.02,49.579,30.02h849.255
			c27.268,0,49.579-13.509,49.579-30.02v-12.008c0-16.511-22.31-30.02-49.579-30.02l-57.745,0.667c4.399,0,11.54-2.101,16.332-6.325
			c8.401-7.406,8.774-18.679,4.666-28.01c-2.663-6.049-6.929-10.846-17.498-12.65l102.074,0.405
			c27.268,0,49.579-13.509,49.579-30.02l0,0C1169.402,1055.509,1147.092,1042,1119.824,1042z"/>
	</g>
</g>
<g id="object">
	<g>
		<g>
			<g>
				<polygon style="fill:#E8CBAE;" points="763.355,691.137 749.931,676.385 755.591,669.989 766.88,677.92 768.241,673.57 
					778.286,687.687 773.244,695.183 				"/>
			</g>
			<g>
				<polygon style="fill:#AECCDC;" points="879.467,651.979 845.342,716.173 774.201,678.153 766.195,694.373 847.717,764.352 
					925.267,682.639 				"/>
			</g>
		</g>
		<g>
			<g>
				<path style="fill:#94A1A9;" d="M841,740.872c-5.747,8.768-29.618,40.388-29.259,38.448l-116.384-5.915L736.97,732L841,740.872z"
					/>
			</g>
			<g>
				<polygon style="fill:#BCC7CF;" points="789.635,666 670,666 693.407,772.909 811.742,779.291 				"/>
			</g>
		</g>
		<g>
			<g>
				<polygon style="fill:#2E4661;" points="890.556,869.907 890.556,898.612 852.284,1022.998 861.852,1152.168 837.931,1156.952 
					799.659,999.077 801.123,952.628 818.795,857.896 				"/>
			</g>
			<g>
				<polygon style="fill:#2E4661;" points="860.196,903.894 898.653,1167.019 916.133,1167.019 927.173,1023.496 951.093,879.974 
									"/>
			</g>
			<g>
				<polygon style="fill:#363636;" points="841.891,1160.233 823.631,1179.558 828.906,1189.354 866.584,1171.269 859.644,1156.952 
									"/>
			</g>
			<g>
				<polygon style="fill:#363636;" points="898.977,1173.153 876.467,1187.304 879.127,1198.107 920.128,1190.009 916.986,1174.412 
									"/>
			</g>
		</g>
		<g>
			<g>
				<path style="fill:#E8CBAE;" d="M844.3,590.578c15.503,1.14,29.999-11.591,45.258-8.431c9.921,2.055,17.753,10.855,20.781,20.772
					c1.411,4.623,1.911,9.661,0.53,14.257c-0.896,2.983-2.549,5.672-4.495,8.061c-2.602,3.194-5.784,5.847-9.317,7.886
					c1.94,3.127,4.164,6.079,6.636,8.805c-7.15,2.738-14.3,5.476-21.45,8.214c-1.58-4.109-3.16-8.217-4.74-12.325
					c-2.15-0.119-4.293-0.425-6.392-0.97c-12.695-3.294-23.219-14.412-26.05-27.519C843.736,603.188,843.991,596.838,844.3,590.578z
					"/>
			</g>
			<g>
				<polygon style="fill:#4E4E4E;" points="848.214,595.255 896.152,589.559 905.456,626.177 918.993,615.434 912.017,555.517 
					844.364,554.06 815.071,571.245 816.311,588.466 842.504,606.097 				"/>
			</g>
		</g>
		<g>
			<path style="fill:#AECCDC;" d="M866.821,655.812l56.939-22.587c0,0,47.286,55.091,70.29,135.605
				c23.004,80.514-28.116,193.44-28.116,193.44s-158.774-32.413-184.822-37.525l51.386-161.028L866.821,655.812z"/>
		</g>
		<g>
			<g>
				<polygon style="fill:#E8CBAE;" points="751.822,785.017 731.282,784.09 731.295,775.294 745.502,772.814 743.578,768.651 
					761.058,771.585 762.278,780.731 				"/>
			</g>
			<g>
				<polygon style="fill:#AECCDC;" points="880.499,676.946 845.775,749.454 755.472,768.607 758.821,786.631 870.449,787.648 
					932.877,708.484 				"/>
			</g>
		</g>
		<g>
			<g>
				<circle style="fill:#6593BE;" cx="565.373" cy="597.127" r="7.25"/>
			</g>
			<g>
				<circle style="fill:#6593BE;" cx="734.373" cy="597.127" r="7.25"/>
			</g>
			<g>
				<circle style="fill:#6593BE;" cx="690.373" cy="539.627" r="7.25"/>
			</g>
			<g>
				<circle style="fill:#6593BE;" cx="648.373" cy="494.626" r="7.25"/>
			</g>
			<g>
				<path style="fill:#6593BE;" d="M614.399,532.449c3.964,0.566,6.718,4.239,6.152,8.202c-0.566,3.964-4.239,6.718-8.202,6.152
					c-3.964-0.566-6.718-4.239-6.152-8.202C606.763,534.638,610.435,531.883,614.399,532.449z"/>
			</g>
			<g>
				<path style="fill:#6593BE;" d="M649.399,432.449c3.964,0.566,6.718,4.238,6.152,8.202s-4.239,6.718-8.202,6.152
					c-3.964-0.566-6.718-4.239-6.152-8.202C641.763,434.638,645.435,431.883,649.399,432.449z"/>
			</g>
		</g>
		<g>
			<g>
				<g>
					<g>
						<g>
							<path style="fill:#6696C1;" d="M656.74,396.249c-22.576,0-44.482-4.424-65.108-13.148
								c-19.918-8.425-37.805-20.484-53.163-35.842c-15.358-15.358-27.417-33.245-35.842-53.163
								c-8.724-20.626-13.148-42.531-13.148-65.108s4.423-44.482,13.148-65.108c8.425-19.918,20.484-37.805,35.842-53.163
								c15.358-15.358,33.245-27.417,53.163-35.842c20.626-8.724,42.531-13.148,65.108-13.148c22.576,0,44.482,4.423,65.108,13.148
								c19.918,8.425,37.805,20.484,53.163,35.842c15.358,15.358,27.417,33.245,35.842,53.163
								C819.576,184.508,824,206.413,824,228.989s-4.424,44.482-13.148,65.108c-8.425,19.918-20.484,37.805-35.842,53.163
								c-15.358,15.358-33.245,27.417-53.163,35.842C701.221,391.826,679.316,396.249,656.74,396.249z M656.74,78.562
								c-40.181,0-77.956,15.647-106.368,44.059c-28.412,28.412-44.059,66.188-44.059,106.368
								c0,40.181,15.647,77.956,44.059,106.368c28.412,28.412,66.188,44.059,106.368,44.059s77.956-15.647,106.368-44.059
								c28.412-28.412,44.059-66.188,44.059-106.368c0-40.181-15.647-77.956-44.059-106.368
								C734.696,94.209,696.92,78.562,656.74,78.562z"/>
						</g>
					</g>
					<g>
						<g>
							<rect x="648.323" y="70.145" style="fill:#6696C1;" width="16.833" height="317.688"/>
						</g>
					</g>
				</g>
				<g>
					<g>
						<rect x="507.163" y="168.65" style="fill:#6696C1;" width="301.824" height="16.833"/>
					</g>
				</g>
				<g>
					<g>
						<rect x="502.197" y="265.041" style="fill:#6696C1;" width="307.075" height="16.833"/>
					</g>
				</g>
				<g>
					<g>
						<path style="fill:#6696C1;" d="M649.308,394.502c-0.932-0.647-23.083-16.19-45.386-44.908
							c-13.116-16.889-23.577-34.875-31.09-53.459c-9.436-23.338-14.22-47.663-14.22-72.301c0-24.688,4.803-48.517,14.276-70.825
							c7.56-17.802,18.086-34.654,31.286-50.087c22.453-26.252,44.795-39.282,45.735-39.824l8.406,14.584
							c-0.199,0.116-21.15,12.412-41.742,36.644c-11.982,14.099-21.515,29.444-28.336,45.609
							c-8.487,20.114-12.791,41.613-12.791,63.899c0,22.465,4.372,44.668,12.993,65.992c6.932,17.145,16.615,33.781,28.779,49.444
							c20.742,26.708,41.489,41.266,41.697,41.41L649.308,394.502z"/>
					</g>
				</g>
				<g>
					<g>
						<path style="fill:#6696C1;" d="M666.398,394.502l-9.612-13.818c0.211-0.147,21.299-15.01,42.041-41.85
							c12.08-15.631,21.691-32.225,28.567-49.319c8.538-21.227,12.868-43.326,12.868-65.681c0-22.414-4.353-44.03-12.937-64.245
							c-6.886-16.217-16.503-31.601-28.584-45.726c-20.592-24.077-41.143-36.063-41.348-36.181l8.406-14.584
							c0.94,0.542,23.282,13.572,45.735,39.824c13.2,15.434,23.726,32.285,31.285,50.087c9.473,22.308,14.276,46.137,14.276,70.825
							c0,24.638-4.784,48.963-14.22,72.301c-7.514,18.584-17.974,36.57-31.09,53.459
							C689.481,378.311,667.33,393.854,666.398,394.502z"/>
					</g>
				</g>
			</g>
			<g>
				<g>
					<circle style="fill:#EFCD42;" cx="570.517" cy="256.949" r="21.488"/>
				</g>
				<g>
					<path style="fill:#FFFFFF;" d="M570.516,280.541c-13.009,0-23.592-10.584-23.592-23.592c0-13.009,10.583-23.592,23.592-23.592
						c13.009,0,23.592,10.583,23.592,23.592C594.109,269.958,583.525,280.541,570.516,280.541z M570.516,237.565
						c-10.688,0-19.384,8.696-19.384,19.384c0,10.688,8.696,19.384,19.384,19.384c10.688,0,19.384-8.696,19.384-19.384
						C589.901,246.261,581.205,237.565,570.516,237.565z"/>
				</g>
			</g>
			<g>
				<g>
					<circle style="fill:#A52554;" cx="724.36" cy="173.981" r="21.488"/>
				</g>
				<g>
					<path style="fill:#FFFFFF;" d="M724.36,197.574c-13.009,0-23.592-10.583-23.592-23.592c0-13.009,10.583-23.592,23.592-23.592
						s23.592,10.583,23.592,23.592C747.952,186.99,737.369,197.574,724.36,197.574z M724.36,154.597
						c-10.688,0-19.384,8.696-19.384,19.384s8.696,19.384,19.384,19.384s19.384-8.696,19.384-19.384S735.048,154.597,724.36,154.597
						z"/>
				</g>
			</g>
			<g>
				<g>
					<circle style="fill:#6BA98C;" cx="735.471" cy="273.458" r="21.488"/>
				</g>
				<g>
					<path style="fill:#FFFFFF;" d="M735.471,297.05c-13.009,0-23.592-10.583-23.592-23.592s10.583-23.592,23.592-23.592
						c13.009,0,23.592,10.583,23.592,23.592S748.48,297.05,735.471,297.05z M735.471,254.074c-10.688,0-19.384,8.696-19.384,19.384
						c0,10.688,8.696,19.384,19.384,19.384c10.688,0,19.384-8.696,19.384-19.384C754.855,262.769,746.159,254.074,735.471,254.074z"
						/>
				</g>
			</g>
		</g>
		<g>
			<path style="fill:#2E4661;" d="M368.026,656.219l-57.965-22.995c0,0-20.6,51.168-44.019,133.133
				c-23.419,81.965,10.874,186.3,10.874,186.3s132.794-31.56,159.312-36.764l-33.261-149.824L368.026,656.219z"/>
		</g>
		<g>
			<g>
				<polygon style="fill:#E8CBAE;" points="445.349,687.176 459.015,672.157 453.253,665.646 441.761,673.72 440.375,669.292 
					430.148,683.663 435.282,691.294 				"/>
			</g>
			<g>
				<polygon style="fill:#2E4661;" points="327.145,647.312 361.885,712.663 434.307,673.957 442.457,690.47 359.467,761.71 
					280.519,678.524 				"/>
			</g>
		</g>
		<g>
			<g>
				<polygon style="fill:#2E4661;" points="322.855,860.167 322.855,889.389 354,1032 357,1159 383,1158 399,1024 401,913 
					395.91,847.94 				"/>
			</g>
			<g>
				<polygon style="fill:#2E4661;" points="353.763,894.767 340,1033 314.613,1162.633 296.818,1162.633 293,1024 261.227,870.416 
									"/>
			</g>
			<g>
				<polygon style="fill:#363636;" points="375.152,1155.468 399.824,1166.6 398.647,1177.865 356.172,1175.415 357.166,1159.248 
									"/>
			</g>
			<g>
				<polygon style="fill:#363636;" points="314.283,1160.879 337.198,1175.284 334.49,1186.282 292.75,1178.038 295.949,1162.16 
									"/>
			</g>
		</g>
		<g>
			<g>
				<path style="fill:#E8CBAE;" d="M369.945,575.804c-15.783,1.161-30.54-11.8-46.074-8.583c-10.1,2.092-18.073,11.05-21.156,21.146
					c-1.437,4.706-1.946,9.835-0.54,14.515c0.912,3.037,2.595,5.774,4.576,8.206c2.649,3.251,5.888,5.953,9.484,8.028
					c-1.975,3.184-4.239,6.189-6.755,8.964c7.279,2.787,14.557,5.575,21.836,8.362c1.608-4.183,3.217-8.365,4.825-12.548
					c2.189-0.121,4.37-0.433,6.507-0.987c12.923-3.353,23.637-14.671,26.519-28.015C370.52,588.642,370.26,582.177,369.945,575.804z
					"/>
			</g>
			<g>
				<path style="fill:#4E4E4E;" d="M365.961,580.566l-48.802-5.799l-9.471,37.278l-13.781-10.937
					c1.212-10.409,2.425-20.817,3.635-31.225c3.901-33.534,47.614-30.722,72.338-31.254l29.822,17.494l-1.262,17.532l-26.665,17.949
					L365.961,580.566z"/>
			</g>
		</g>
		<g>
			<path style="fill:#FFFFFF;" d="M347.018,642.214l-57.965-22.995c0,0-20.6,51.168-44.019,133.132s10.874,186.3,10.874,186.3
				s118.789-58.696,145.306-63.9l-19.255-122.689L347.018,642.214z"/>
		</g>
		<g>
			<path style="fill:#2E4661;" d="M244.159,754.102c23.419-81.965,44.019-133.132,44.019-133.132l57.965,22.995l0.094,0.296
				c-1.284,3.349-2.626,6.68-3.789,10.075c-4.59,13.401-7.984,27.193-10.069,41.205c-3.664,24.628-4.048,49.95-3.261,74.803
				c0.755,23.846,3.214,47.648,7.451,71.129c5.601,31.042,14.531,61.289,26.039,90.565
				c-53.914,10.955-117.363,23.908-117.363,23.908S220.74,836.067,244.159,754.102z"/>
		</g>
		<g>
			<path style="fill:#6BA98C;" d="M373.516,773.148c2.622,11.037,5.429,23.472,3.189,34.203c0,0-7.23,15.108-7.851,14.487
				c-0.027-0.481-8.242-7.267-10.543-12.324c-3.924-8.628-4.768-19.396-4.849-29.127c-0.29-34.534,1.752-69.348-4.072-103.389
				c-6.796-2.065-12.622-7.065-8.444-14.159c13.225,5.016,14.625,34.783,17.513,46.939
				C363.478,730.901,368.497,752.024,373.516,773.148z"/>
		</g>
		<g>
			<g>
				<path style="fill:#94A1A9;" d="M365.285,728.331c7.669,9.882,38.46,44.96,37.671,42.612l114.564-28.052l-50.628-44.093
					L365.285,728.331z"/>
			</g>
			<g>
				<polygon style="fill:#BCC7CF;" points="406.311,662.555 525.425,641.281 519.725,744.016 402.957,770.943 				"/>
			</g>
		</g>
		<g>
			<g>
				<polygon style="fill:#E8CBAE;" points="464.09,771.996 485,771.053 484.986,762.098 470.524,759.574 472.483,755.336 
					454.688,758.323 453.445,767.633 				"/>
			</g>
			<g>
				<polygon style="fill:#2E4661;" points="333.094,661.978 368.444,735.793 460.374,755.291 456.965,773.64 343.325,774.675 
					279.772,694.084 				"/>
			</g>
		</g>
	</g>
</g>
</svg>
